# xmcd CD database file
#
# Track frame offsets:
#	150
#	16767
#	31565
#	45432
#	60962
#	75375
#	94370
#	117550
#	132620
#	149377
#	165320
#	180530
#	196750
#
# Disc length: 2824 seconds
#
# Revision: 0
# Processed by: cddbd v1.4PL0 Copyright (c) Steve Scherf et al.
# Submitted via: Feurio! 1.65 - http://www.feurio.com
#
DISCID=9a0b060d
DTITLE=John Berry - Faces
DYEAR=1900
DGENRE=Country
TTITLE0=She's Taken A Shine
TTITLE1=Change My Mind
TTITLE2=I Will, If You Will
TTITLE3=He Doesn't Even Know Her
TTITLE4=Faithfully
TTITLE5=Livin' On Love
TTITLE6=Time To Be A Man
TTITLE7=Forty Again
TTITLE8=Love Is Everything
TTITLE9=I Give My Heart
TTITLE10=You And Only You
TTITLE11=Standing At The Edge Of Goodbye
TTITLE12=Your Love Amazes Me
EXTD=
EXTT0=
EXTT1=
EXTT2=
EXTT3=
EXTT4=
EXTT5=
EXTT6=
EXTT7=
EXTT8=
EXTT9=
EXTT10=
EXTT11=
EXTT12=
PLAYORDER=
